PathFileType	4	(X/Y/Z)	D:\TRACE\spotREDO_2-26-24\spot_Both_Motion_3_10-v60.trc
DataRate	CameraRate	NumFrames	NumMarkers	Units	OrigDataRate	OrigDataStartFrame	OrigNumFrames
100.00	100.00	      21	9	mm	100.00	6126	      7000
Frame#	Time	front left toe			Front right toe			aft left toe			aft right toe			Arm			FL body			FR body			AL Body			AR Body			
		X1	Y1	Z1	X2	Y2	Z2	X3	Y3	Z3	X4	Y4	Z4	X5	Y5	Z5	X6	Y6	Z6	X7	Y7	Z7	X8	Y8	Z8	X9	Y9	Z9	

6126	61.250	-197.51404	38.72648	-412.57886	231.23912	41.88497	-503.44687	-155.29614	8.41931	175.90254	227.48668	21.75832	147.53822	36.89729	767.15912	-721.71851	-84.03104	617.93188	-499.62079	71.77102	622.76727	-499.20972	-92.75071	555.84290	381.91678	54.58449	549.71271	384.53897	
6127	61.260	-197.56693	38.62528	-412.41080	230.87292	42.46540	-503.33295	-154.94914	8.54296	175.88852	227.69341	21.68541	147.52922	36.70467	767.26288	-721.50336	-84.13561	617.81641	-499.85287	71.72474	622.33600	-499.29428	-91.37746	555.83765	381.55081	56.06125	549.92401	384.16681	
6128	61.270	-197.67310	38.54601	-412.22235	230.51137	42.49703	-503.55206	-154.85045	8.76807	176.01852	227.87404	21.62743	147.40097	36.98114	767.26367	-721.20020	-84.53091	617.61975	-500.08273	71.20974	622.18219	-500.16730	-89.75307	556.09930	381.55106	57.44828	550.03058	383.74435	
6129	61.280	-197.79118	38.49120	-412.04285	230.14398	42.52068	-503.83163	-155.06566	9.18984	176.01036	228.01894	21.60014	147.35028	37.50278	767.13184	-720.77405	-85.96960	618.16022	-501.17776	70.80269	621.90247	-500.65137	-87.99203	556.36334	381.58411	59.25848	550.32001	383.37897	
6130	61.290	-197.89464	38.39664	-411.92374	229.97879	42.53458	-503.98077	-154.96718	9.45560	175.94250	228.14859	21.53615	147.33125	38.59740	766.89880	-720.51154	-85.47530	617.44257	-500.54910	70.66727	621.63446	-500.96570	-86.69619	556.40820	381.56866	60.75476	550.36646	383.02194	
6131	61.300	-197.99934	38.27773	-411.91681	229.81682	42.52259	-504.10327	-154.88759	9.51381	175.98805	228.14526	21.48195	147.34151	39.71138	766.53644	-720.12848	-85.61888	617.11517	-500.48547	70.64037	621.25726	-501.27420	-85.28796	556.52063	381.50027	61.79176	550.35120	382.76013	
6132	61.310	-198.07600	38.22580	-411.91156	229.79909	42.53456	-504.14197	-154.78905	9.50745	176.02895	228.19551	21.41663	147.31065	40.74953	765.98212	-719.95532	-85.20918	616.77863	-500.41046	70.79111	620.98279	-501.41595	-84.11295	556.48676	381.45657	63.13067	550.09283	382.57855	
6133	61.320	-198.08730	38.22216	-411.92233	229.72298	42.41516	-504.13132	-154.89392	9.55670	176.01543	228.16635	21.39163	147.31230	41.43884	765.66296	-719.78607	-84.34827	616.61426	-500.34161	71.34652	620.59930	-501.47516	-83.19215	556.40015	381.28098	63.74088	550.04236	382.57007	
6134	61.330	-198.05191	38.28357	-411.90714	229.94289	42.26971	-503.98749	-154.94984	9.56232	175.99338	228.18434	21.36404	147.44490	41.52811	765.57275	-719.69440	-83.69048	616.79492	-500.50430	71.79640	620.31256	-501.57724	-82.91145	556.56903	381.46741	64.44028	549.66003	382.66348	
6135	61.340	-197.90234	38.43929	-411.96548	230.20296	42.02464	-503.79959	-155.09970	9.49602	176.06755	228.15338	21.38084	147.50581	41.32548	765.47241	-719.66302	-82.35928	616.64319	-500.40244	73.71135	619.98010	-501.12631	-82.62543	556.41156	381.55524	64.47114	549.45618	382.94211	
6136	61.350	-197.75288	38.64052	-412.16205	230.52171	41.70128	-503.63480	-155.21925	9.26128	176.06319	228.11824	21.38390	147.56619	40.95892	765.45270	-719.63708	-80.66258	616.49768	-500.17233	75.02191	619.87341	-500.88272	-82.57502	556.18335	381.61496	64.86912	548.98126	383.33701	
6137	61.360	-197.59853	38.82098	-412.28815	230.73540	41.45061	-503.56940	-155.13184	9.12394	176.05872	228.03711	21.36189	147.68918	40.53570	765.51440	-719.56891	-79.17715	616.70947	-500.06970	76.51828	619.74994	-500.48190	-82.54520	555.86371	381.71503	65.09672	548.57379	383.62939	
6138	61.370	-197.64261	38.95966	-412.57187	230.89226	41.19637	-503.36078	-155.10033	9.04002	176.03215	228.05214	21.32483	147.74428	39.96462	765.56079	-719.60339	-77.68697	616.79852	-500.11310	77.92986	619.75989	-500.10236	-82.33501	555.67627	381.77466	65.33482	548.28815	383.92343	
6139	61.380	-197.25333	39.24870	-412.42523	230.97729	41.39923	-503.03824	-155.51927	9.21688	175.96072	227.90227	21.28142	147.76865	39.43676	765.68146	-719.83063	-76.11571	616.67688	-499.63177	79.22284	619.82062	-499.68066	-81.76944	555.53735	382.04663	65.60080	548.02594	384.14603	
6140	61.390	-197.30278	39.59363	-412.47095	230.94487	41.42403	-502.95392	-155.69820	9.28333	176.03317	227.84485	21.28673	147.84932	38.16285	765.96887	-720.08130	-75.22318	617.00970	-499.49658	80.55721	619.82996	-499.10495	-80.96484	555.53497	382.38123	66.09125	548.10968	384.53168	
6141	61.400	-197.40005	39.71608	-412.44153	230.99765	41.16526	-503.13925	-155.43253	9.36010	176.06763	227.94034	21.29292	147.87767	37.74047	766.12872	-720.14288	-74.18844	616.77460	-499.05084	81.57630	619.65698	-498.61359	-80.03477	555.48029	382.93149	67.13720	547.83600	384.84872	
6142	61.410	-197.65501	39.52322	-412.52313	230.84607	41.17241	-503.15237	-155.42970	9.48498	176.08241	228.09680	21.21586	147.96245	37.34469	766.15082	-720.22937	-73.05271	616.30994	-498.41022	82.36180	619.23102	-498.27725	-78.91263	555.43329	383.29767	68.26912	547.51898	385.37366	
6143	61.420	-197.65918	39.49496	-412.41397	230.85675	41.22425	-503.07898	-155.33749	9.52889	176.12114	228.10744	21.17643	147.95476	37.33398	766.06537	-720.30219	-72.71398	616.25702	-498.17285	83.44385	618.56848	-498.12534	-77.51286	555.40582	383.82809	69.43837	547.52466	385.90918	
6144	61.430	-197.68503	39.50016	-412.35471	230.81775	41.26443	-503.03723	-155.28673	9.74903	176.14063	228.20078	21.14755	148.06471	37.52877	765.79779	-720.38885	-71.93845	615.61371	-497.34424	83.61810	619.08508	-497.91132	-76.11343	555.34235	384.30423	71.13127	547.48590	386.30716	
6145	61.440	-197.75354	39.53019	-412.29773	230.57455	41.30678	-503.10153	-155.24312	9.98806	176.13971	228.19154	21.03358	148.05707	37.91907	765.48779	-720.41663	-71.54943	615.44684	-496.89160	84.16550	618.72144	-497.41833	-74.57826	555.25452	384.99228	72.67081	547.18726	386.58304	
6146	61.450	-197.83768	39.53838	-412.07318	230.52560	41.47393	-502.98782	-155.08334	10.19673	176.17366	228.24606	20.92109	148.04149	38.31558	765.31146	-720.40985	-71.03984	615.23914	-496.48438	84.26722	618.42004	-497.13904	-72.78099	555.01855	385.50925	74.22842	547.17786	387.19882	
